<svg width="19pt" height="26pt" viewBox="-1 -1 21 28" xmlns="http://www.w3.org/2000/svg"><g id="fontsvg1675795251400" stroke-linecap="round" fill-rule="evenodd" stroke="#ffff00" stroke-width="0.5mm" fill="#f77932"><path d="M 15.954 22.204 L 15.774 22.834 A 25.268 25.268 0 0 1 15.714 23.153 A 20.45 20.45 0 0 1 15.654 23.449 Q 15.594 23.734 15.534 24.064 A 2.761 2.761 0 0 1 13.71 24.998 A 3.913 3.913 0 0 1 13.254 25.024 Q 11.724 25.024 10.824 24.244 A 0.78 0.78 0 0 1 10.563 23.858 Q 10.436 23.468 10.565 22.813 A 5.267 5.267 0 0 1 10.644 22.474 A 4.38 4.38 0 0 0 10.738 22.045 Q 10.81 21.627 10.839 21.079 A 43.082 43.082 0 0 1 10.862 20.67 Q 10.899 20.082 10.944 19.654 L 10.944 19.594 A 6.711 6.711 0 0 0 9.612 20.252 A 6.094 6.094 0 0 0 9.324 20.449 A 421.629 421.629 0 0 0 9.073 20.632 Q 8.61 20.971 8.449 21.09 A 10.996 10.996 0 0 0 8.424 21.109 Q 8.276 21.221 8.046 21.291 A 2.007 2.007 0 0 1 7.944 21.319 Q 7.676 21.386 7.455 21.417 A 3.281 3.281 0 0 1 7.404 21.424 Q 6.834 21.454 6.624 21.604 Q 4.981 24.55 3.659 25.036 A 1.683 1.683 0 0 1 3.504 25.084 Q 2.634 25.354 1.764 25.219 A 1.772 1.772 0 0 1 0.634 24.553 A 2.657 2.657 0 0 1 0.384 24.184 Q -0.557 23.302 0.808 19.423 A 29.41 29.41 0 0 1 0.864 19.264 A 38.72 38.72 0 0 1 1.544 17.547 Q 2.19 16.015 3.099 14.149 A 78.928 78.928 0 0 1 4.352 11.684 Q 4.946 10.566 5.522 9.584 A 46.443 46.443 0 0 1 5.904 8.944 A 42.775 42.775 0 0 1 9.257 4.176 A 33.762 33.762 0 0 1 12.294 0.904 Q 12.864 0.664 13.524 0.349 A 3.695 3.695 0 0 1 14.262 0.085 A 3.069 3.069 0 0 1 14.829 0.004 A 3.986 3.986 0 0 1 15.014 0 Q 15.45 0 15.907 0.094 A 5.108 5.108 0 0 1 16.164 0.154 Q 16.854 0.334 17.334 0.694 Q 18.364 1.474 17.767 2.64 A 2.977 2.977 0 0 1 17.664 2.824 A 2.709 2.709 0 0 1 18.413 3.394 A 2.372 2.372 0 0 1 18.954 4.414 Q 18.354 7.774 17.874 11.089 Q 17.394 14.402 16.945 16.636 A 70.955 70.955 0 0 1 16.944 16.639 A 148.716 148.716 0 0 0 16.737 17.686 Q 16.454 19.143 16.33 19.974 A 21.586 21.586 0 0 0 16.329 19.984 Q 16.164 21.094 15.954 22.204 Z M 12.384 9.004 L 11.244 10.714 Q 10.614 12.514 9.984 14.029 A 209.346 209.346 0 0 0 9.537 15.113 Q 9.361 15.542 9.203 15.935 A 117.841 117.841 0 0 0 8.904 16.684 L 11.274 16.594 Q 11.514 14.674 11.814 12.784 Q 12.114 10.894 12.384 9.004 Z M 11.274 16.654 L 11.274 16.624 Q 10.884 16.654 10.554 16.684 A 9.522 9.522 0 0 0 10.507 16.689 Q 10.256 16.713 10.412 16.714 A 2.34 2.34 0 0 0 10.434 16.714 Q 10.854 16.714 11.274 16.654 Z" vector-effect="non-scaling-stroke"/></g></svg>
